<?xml version="1.0" encoding="UTF-8" standalone="no"?>
<!-- Created with Inkscape (http://www.inkscape.org/) -->

<svg
   xmlns:dc="http://purl.org/dc/elements/1.1/"
   xmlns:cc="http://creativecommons.org/ns#"
   xmlns:rdf="http://www.w3.org/1999/02/22-rdf-syntax-ns#"
   xmlns:svg="http://www.w3.org/2000/svg"
   xmlns="http://www.w3.org/2000/svg"
   xmlns:sodipodi="http://sodipodi.sourceforge.net/DTD/sodipodi-0.dtd"
   xmlns:inkscape="http://www.inkscape.org/namespaces/inkscape"
   width="13.82887mm"
   height="13.828611mm"
   viewBox="0 0 13.82887 13.828611"
   version="1.1"
   id="svg8"
   inkscape:version="0.92.4 (unknown)"
   sodipodi:docname="4p2p.svg">
  <defs
     id="defs2" />
  <sodipodi:namedview
     id="base"
     pagecolor="#ffffff"
     bordercolor="#666666"
     borderopacity="1.0"
     inkscape:pageopacity="0.0"
     inkscape:pageshadow="2"
     inkscape:zoom="0.99791667"
     inkscape:cx="-275.95843"
     inkscape:cy="112.12233"
     inkscape:document-units="mm"
     inkscape:current-layer="layer1"
     showgrid="false"
     inkscape:window-width="1366"
     inkscape:window-height="725"
     inkscape:window-x="0"
     inkscape:window-y="0"
     inkscape:window-maximized="1" />
  <metadata
     id="metadata5">
    <rdf:RDF>
      <cc:Work
         rdf:about="">
        <dc:format>image/svg+xml</dc:format>
        <dc:type
           rdf:resource="http://purl.org/dc/dcmitype/StillImage" />
        <dc:title />
      </cc:Work>
    </rdf:RDF>
  </metadata>
  <g
     inkscape:label="Layer 1"
     inkscape:groupmode="layer"
     id="layer1"
     transform="translate(115.12086,-192.16966)">
    <text
       xml:space="preserve"
       style="font-style:normal;font-variant:normal;font-weight:normal;font-stretch:normal;font-size:9.8777771px;line-height:1.25;font-family:mononoki;-inkscape-font-specification:mononoki;letter-spacing:0px;word-spacing:0px;fill:#000000;fill-opacity:1;stroke:none;stroke-width:0.26458332"
       x="-142.53569"
       y="178.59796"
       id="text817"><tspan
         sodipodi:role="line"
         id="tspan815"
         x="-142.53569"
         y="178.59796"
         style="font-style:normal;font-variant:normal;font-weight:normal;font-stretch:normal;font-family:'Code Bold';-inkscape-font-specification:'Code Bold, ';stroke-width:0.26458332">4P2P</tspan></text>
    <path
       d="m -134.20225,202.45877 v 1.40263 h 6.89468 v 3.12138 h 1.97556 v -3.12138 h 1.12605 v -1.93603 h -1.12605 v -8.77146 h -1.54094 z m 2.60772,-0.49388 4.32648,-5.35376 v 5.35376 z"
       style="font-style:normal;font-variant:normal;font-weight:normal;font-stretch:normal;font-size:9.8777771px;line-height:1.25;font-family:'Code Bold';-inkscape-font-specification:'Code Bold, ';letter-spacing:0px;word-spacing:0px;fill:#ff0000;fill-opacity:1;stroke:none;stroke-width:0.52916664"
       id="path938"
       inkscape:connector-curvature="0" />
    <path
       d="m -129.92555,201.54507 c 0.0593,-0.38525 0.28151,-0.66182 0.70626,-0.66182 0.80504,0 0.93839,0.81986 0.39511,1.21002 h 0.005 l -1.6249,1.38289 v 0.38524 h 2.425 v -0.47908 h -1.58539 c 0.49883,-0.41486 0.62724,-0.50376 1.11619,-0.90875 0.93345,-0.65193 0.57785,-2.08914 -0.73095,-2.08914 -0.72108,0 -1.11619,0.50376 -1.20509,1.12111 z"
       style="font-style:normal;font-variant:normal;font-weight:normal;font-stretch:normal;font-size:9.8777771px;line-height:1.25;font-family:'Code Bold';-inkscape-font-specification:'Code Bold, ';letter-spacing:0px;word-spacing:0px;fill:#000000;fill-opacity:1;stroke:none;stroke-width:0.13229166"
       id="path940"
       inkscape:connector-curvature="0" />
    <path
       inkscape:connector-curvature="0"
       id="path942"
       style="font-style:normal;font-variant:normal;font-weight:normal;font-stretch:normal;font-size:9.8777771px;line-height:1.25;font-family:'Code Bold';-inkscape-font-specification:'Code Bold, ';letter-spacing:0px;word-spacing:0px;fill:#000000;fill-opacity:1;stroke:none;stroke-width:0.26458332"
       d="m -136.11854,196.61113 v 6.91444 h 1.00754 v -2.30152 h 1.52118 c 1.49154,0 2.24225,-1.14582 2.24225,-2.30153 0,-1.1557 -0.75071,-2.31139 -2.24225,-2.31139 z m 1.00754,3.62513 v -2.61761 h 1.52118 c 0.83961,0 1.25447,0.65194 1.25447,1.31375 0,0.65193 -0.41486,1.30386 -1.25447,1.30386 z" />
    <path
       inkscape:connector-curvature="0"
       id="path944"
       style="font-style:normal;font-variant:normal;font-weight:normal;font-stretch:normal;font-size:9.8777771px;line-height:1.25;font-family:'Code Bold';-inkscape-font-specification:'Code Bold, ';letter-spacing:0px;word-spacing:0px;fill:#000000;fill-opacity:1;stroke:none;stroke-width:0.26458332"
       d="m -122.28967,196.61113 v 6.91444 h -1.00753 v -2.30152 h -1.52118 c -1.49154,0 -2.24225,-1.14582 -2.24225,-2.30153 0,-1.1557 0.75071,-2.31139 2.24225,-2.31139 z m -1.00753,3.62513 v -2.61761 h -1.52118 c -0.83961,0 -1.25448,0.65194 -1.25448,1.31375 0,0.65193 0.41487,1.30386 1.25448,1.30386 z" />
    <g
       id="g997"
       inkscape:export-xdpi="734.69525"
       inkscape:export-ydpi="734.69525">
      <path
         transform="scale(0.26458333)"
         id="path988"
         d="m -394.33398,739.76953 c -0.58315,0.12726 -1.258,0.13012 -1.76172,0.35742 -1.05875,0.47775 -1.94144,1.16147 -2.64844,1.98047 -0.707,0.819 -1.23771,1.77508 -1.5918,2.79883 -0.35408,1.02375 -0.53125,2.11503 -0.53125,3.20703 0,1.09201 0.17717,2.18092 0.53125,3.20117 0.35409,1.02025 0.8848,1.97083 1.5918,2.78516 0.707,0.81433 1.58969,1.49255 2.64844,1.9668 0.50371,0.22563 1.17858,0.22922 1.76172,0.35547 v -3.74024 c -0.0404,-0.0169 -0.0992,-0.009 -0.13868,-0.0273 -0.59325,-0.2695 -1.08613,-0.65324 -1.48046,-1.11524 -0.39434,-0.462 -0.69014,-1.00258 -0.88672,-1.58008 -0.19659,-0.57749 -0.29493,-1.19259 -0.29493,-1.80859 0,-0.62533 0.0983,-1.24928 0.29493,-1.83203 0.19658,-0.58275 0.49238,-1.12356 0.88672,-1.58789 0.39433,-0.46434 0.88721,-0.85101 1.48046,-1.12109 0.0395,-0.018 0.0983,-0.0104 0.13868,-0.0273 z"
         style="font-style:normal;font-variant:normal;font-weight:normal;font-stretch:normal;font-size:9.8777771px;line-height:1.25;font-family:'Code Bold';-inkscape-font-specification:'Code Bold, ';letter-spacing:0px;word-spacing:0px;fill:#ff0000;fill-opacity:1;stroke:none;stroke-width:1.99999988"
         inkscape:connector-curvature="0" />
      <path
         transform="scale(0.26458333)"
         id="path969"
         d="m -400.1582,726.31055 -27.70118,35.16797 v 5.30078 h 26.0586 v 11.79687 h 7.4668 V 766.7793 h 4.25586 v -7.31641 h -4.25586 v -3.04101 c -0.58314,-0.12625 -1.25801,-0.12984 -1.76172,-0.35547 -1.05875,-0.47425 -1.94144,-1.15247 -2.64844,-1.9668 -0.707,-0.81433 -1.23771,-1.76491 -1.5918,-2.78516 -0.35408,-1.02025 -0.53125,-2.10916 -0.53125,-3.20117 0,-1.092 0.17717,-2.18328 0.53125,-3.20703 0.35409,-1.02375 0.8848,-1.97983 1.5918,-2.79883 0.707,-0.819 1.58969,-1.50272 2.64844,-1.98047 0.50372,-0.2273 1.17857,-0.23016 1.76172,-0.35742 v -13.45898 z m -1.49414,13.0664 v 20.23438 h -16.35157 z"
         style="font-style:normal;font-variant:normal;font-weight:normal;font-stretch:normal;font-size:9.8777771px;line-height:1.25;font-family:'Code Bold';-inkscape-font-specification:'Code Bold, ';letter-spacing:0px;word-spacing:0px;fill:#ff0000;fill-opacity:1;stroke:none;stroke-width:1.99999988"
         inkscape:connector-curvature="0" />
      <path
         d="m -108.92787,200.5608 c 0.0593,-0.38525 0.28151,-0.66183 0.70626,-0.66183 0.80504,0 0.93839,0.81987 0.39511,1.21003 h 0.005 l -1.6249,1.38289 v 0.38523 h 2.425 v -0.47907 h -1.58539 c 0.49883,-0.41486 0.62724,-0.50376 1.11619,-0.90875 0.93345,-0.65194 0.57785,-2.08915 -0.73095,-2.08915 -0.72108,0 -1.11619,0.50376 -1.20509,1.12112 z"
         style="font-style:normal;font-variant:normal;font-weight:normal;font-stretch:normal;font-size:9.8777771px;line-height:1.25;font-family:'Code Bold';-inkscape-font-specification:'Code Bold, ';letter-spacing:0px;word-spacing:0px;fill:#000000;fill-opacity:1;stroke:none;stroke-width:0.13229166"
         id="path971"
         inkscape:connector-curvature="0" />
      <path
         inkscape:connector-curvature="0"
         id="path973"
         style="font-style:normal;font-variant:normal;font-weight:normal;font-stretch:normal;font-size:9.8777771px;line-height:1.25;font-family:'Code Bold';-inkscape-font-specification:'Code Bold, ';letter-spacing:0px;word-spacing:0px;fill:#000000;fill-opacity:1;stroke:none;stroke-width:0.26458332"
         d="m -115.12086,195.62685 v 6.91445 h 1.00754 v -2.30153 h 1.52118 c 1.49154,0 2.24225,-1.14581 2.24225,-2.30152 0,-1.1557 -0.75071,-2.3114 -2.24225,-2.3114 z m 1.00754,3.62514 v -2.61761 h 1.52118 c 0.83961,0 1.25447,0.65194 1.25447,1.31375 0,0.65193 -0.41486,1.30386 -1.25447,1.30386 z" />
      <path
         inkscape:connector-curvature="0"
         id="path975"
         style="font-style:normal;font-variant:normal;font-weight:normal;font-stretch:normal;font-size:9.8777771px;line-height:1.25;font-family:'Code Bold';-inkscape-font-specification:'Code Bold, ';letter-spacing:0px;word-spacing:0px;fill:#000000;fill-opacity:1;stroke:none;stroke-width:0.26458332"
         d="m -101.29199,195.62685 v 6.91445 h -1.00753 v -2.30153 h -1.52118 c -1.49154,0 -2.24225,-1.14581 -2.24225,-2.30152 0,-1.1557 0.75071,-2.3114 2.24225,-2.3114 z m -1.00753,3.62514 v -2.61761 h -1.52118 c -0.83961,0 -1.25448,0.65194 -1.25448,1.31375 0,0.65193 0.41487,1.30386 1.25448,1.30386 z" />
    </g>
    <path
       inkscape:connector-curvature="0"
       id="path828"
       style="font-style:normal;font-variant:normal;font-weight:normal;font-stretch:normal;font-size:9.8777771px;line-height:1.25;font-family:'Code Bold';-inkscape-font-specification:'Code Bold, ';letter-spacing:0px;word-spacing:0px;fill:#000000;fill-opacity:1;stroke:none;stroke-width:0.26458332"
       d="m -143.98979,165.73053 v 0.70132 h 3.44735 v 1.56069 h 0.98778 v -1.56069 h 0.56303 v -0.96802 h -0.56303 v -4.38574 h -0.77047 z m 1.30387,-0.24695 2.16323,-2.67687 v 2.67687 z" />
    <path
       inkscape:connector-curvature="0"
       id="path830"
       style="font-style:normal;font-variant:normal;font-weight:normal;font-stretch:normal;font-size:9.8777771px;line-height:1.25;font-family:'Code Bold';-inkscape-font-specification:'Code Bold, ';letter-spacing:0px;word-spacing:0px;fill:#000000;fill-opacity:1;stroke:none;stroke-width:0.26458332"
       d="m -138.49481,161.07809 v 6.91445 h 1.00753 v -2.30152 h 1.52118 c 1.49155,0 2.24226,-1.14583 2.24226,-2.30153 0,-1.1557 -0.75071,-2.3114 -2.24226,-2.3114 z m 1.00753,3.62515 v -2.61761 h 1.52118 c 0.83961,0 1.25448,0.65193 1.25448,1.31374 0,0.65194 -0.41487,1.30387 -1.25448,1.30387 z" />
    <path
       inkscape:connector-curvature="0"
       id="path832"
       style="font-style:normal;font-variant:normal;font-weight:normal;font-stretch:normal;font-size:9.8777771px;line-height:1.25;font-family:'Code Bold';-inkscape-font-specification:'Code Bold, ';letter-spacing:0px;word-spacing:0px;fill:#000000;fill-opacity:1;stroke:none;stroke-width:0.26458332"
       d="m -132.39682,163.35986 c 0.11853,-0.77047 0.56303,-1.32362 1.41252,-1.32362 1.61008,0 1.87678,1.63971 0.79022,2.42005 h 0.01 l -3.24979,2.76578 v 0.77047 h 4.84999 v -0.95815 h -3.17077 c 0.99766,-0.82973 1.25448,-1.00753 2.23238,-1.81751 1.8669,-1.30386 1.1557,-4.1783 -1.46191,-4.1783 -1.44216,0 -2.23238,1.00754 -2.41018,2.24226 z" />
    <path
       inkscape:connector-curvature="0"
       id="path834"
       style="font-style:normal;font-variant:normal;font-weight:normal;font-stretch:normal;font-size:9.8777771px;line-height:1.25;font-family:'Code Bold';-inkscape-font-specification:'Code Bold, ';letter-spacing:0px;word-spacing:0px;fill:#000000;fill-opacity:1;stroke:none;stroke-width:0.26458332"
       d="m -128.03826,161.07809 v 6.91445 h 1.00754 v -2.30152 h 1.52118 c 1.49154,0 2.24225,-1.14583 2.24225,-2.30153 0,-1.1557 -0.75071,-2.3114 -2.24225,-2.3114 z m 1.00754,3.62515 v -2.61761 h 1.52118 c 0.83961,0 1.25447,0.65193 1.25447,1.31374 0,0.65194 -0.41486,1.30387 -1.25447,1.30387 z" />
  </g>
</svg>
